<svg width="102" height="106" viewBox="0 0 102 106" fill="none" xmlns="http://www.w3.org/2000/svg">
<path fill-rule="evenodd" clip-rule="evenodd" d="M102 33H0V100C0 103.314 2.68629 106 6 106H96C99.3137 106 102 103.314 102 100V33ZM91 43H11V90C11 93.3137 13.6863 96 17 96H85C88.3137 96 91 93.3137 91 90V43Z" fill="white"/>
<path fill-rule="evenodd" clip-rule="evenodd" d="M22 0C19.7909 0 18 1.79086 18 4V16C18 18.2091 19.7909 20 22 20H27C29.2091 20 31 18.2091 31 16V4C31 1.79086 29.2091 0 27 0H22ZM27 4H22V17H27V4Z" fill="white"/>
<path fill-rule="evenodd" clip-rule="evenodd" d="M75 0C72.7909 0 71 1.79086 71 4V16C71 18.2091 72.7909 20 75 20H80C82.2091 20 84 18.2091 84 16V4C84 1.79086 82.2091 0 80 0H75ZM80 4H75V17H80V4Z" fill="white"/>
<path d="M32 9V17C32 19.2091 30.2091 21 28 21H21C18.7909 21 17 19.2091 17 17V9H4C1.79086 9 0 10.7909 0 13V29H102V13C102 10.7909 100.209 9 98 9H85V17C85 19.2091 83.2091 21 81 21H74C71.7909 21 70 19.2091 70 17V9H32Z" fill="white"/>
</svg>
